<mxfile host="app.diagrams.net" modified="2024-02-05T07:12:44.537Z" agent="Mozilla/5.0 (Windows NT 10.0; Win64; x64) AppleWebKit/537.36 (KHTML, like Gecko) Chrome/120.0.0.0 YaBrowser/24.1.0.0 Safari/537.36" version="23.1.1" etag="gPsg-ZILsMODrU6Nlffj" type="github">
  <diagram name="Страница — 1" id="2ZKvoJFDWfil1CJUbIIA">
    <mxGraphModel>
      <root>
        <mxCell id="0" />
        <mxCell id="1" parent="0" />
      </root>
    </mxGraphModel>
  </diagram>
</mxfile>
